<?xml version="1.0" encoding="UTF-8"?>
<svg id="Layer_1" data-name="Layer 1" xmlns="http://www.w3.org/2000/svg" viewBox="0 0 88.04 87.98">
  <defs>
    <style>
      .cls-1 {
        fill: #fafaf5;
        stroke-width: 0px;
      }
    </style>
  </defs>
  <path class="cls-1" d="m50.19,87.66v-31.06h10.02c.58-4.29,1.09-8.12,1.67-12.39h-11.6c-.32-3.73-.59-7.09.38-10.41.81-2.75,2.71-4.3,5.62-4.42,1.82-.07,3.64-.01,5.78-.01v-10.44c-5.14-1.4-10.2-1.6-15.23-.1-5.87,1.75-9.67,7.23-10.01,14.36-.16,3.4-.03,6.82-.03,10.75-2.04.04-3.82.09-5.59.11-1.68.02-3.36,0-5.26,0v12.32h10.49v31.1c-.08.08-.26.39-.44.39-6.71-.03-13.47.37-20.13-.24-9.04-.83-14.48-6.69-15.56-15.77-.27-2.3-.27-4.64-.28-6.95C0,50.86-.02,36.8.04,22.75c.01-2.8.12-5.64.58-8.39C1.8,7.19,6.97,1.94,14.08.66,16.71.19,19.43.05,22.1.04c14.79-.05,29.58-.05,44.37,0,2.55.01,5.15.18,7.65.64,6.92,1.28,12.07,6.52,13.31,13.45.39,2.15.57,4.37.58,6.56.04,15.52.03,31.05,0,46.57,0,1.83-.1,3.67-.38,5.48-1.27,8.35-6.47,14.03-14.85,14.78-7.36.65-14.83.14-22.59.14Z"/>
</svg>