<?xml version="1.0" encoding="UTF-8"?>
<svg id="Layer_1" data-name="Layer 1" xmlns="http://www.w3.org/2000/svg" viewBox="0 0 87.97 87.98">
  <defs>
    <style>
      .cls-1 {
        fill: #fafaf5;
        stroke-width: 0px;
      }
    </style>
  </defs>
  <path class="cls-1" d="m0,43.97c0-6.06,0-12.12,0-18.17C.01,13.3,8.48,2.93,20.72.5c1.6-.32,3.25-.46,4.88-.47C37.89,0,50.17,0,62.46.01c12.87.02,23.72,9.61,25.31,22.37.14,1.09.19,2.2.19,3.31.01,12.22.02,24.43,0,36.65,0,12.97-9.5,23.78-22.35,25.43-1.06.14-2.14.19-3.2.19-12.22.01-24.43.02-36.65,0-13.06-.01-23.73-9.3-25.54-22.22-.16-1.12-.21-2.27-.22-3.4-.02-6.12,0-12.25,0-18.38Zm80.07.02c0-6.13.03-12.25,0-18.38-.06-9.77-7.89-17.67-17.6-17.7-12.25-.04-24.51-.03-36.76.02-1.65,0-3.35.25-4.94.7-7.68,2.16-12.84,9.03-12.86,17.07-.03,12.25-.01,24.51,0,36.76,0,.93.09,1.88.25,2.8,1.56,8.74,8.74,14.79,17.64,14.81,12.19.03,24.37.03,36.56-.02,1.62,0,3.28-.26,4.84-.69,7.61-2.1,12.83-9.05,12.86-16.99.02-6.13,0-12.25,0-18.38Z"/>
  <path class="cls-1" d="m44.03,21.44c12.43,0,22.52,10.05,22.52,22.42,0,12.71-9.96,22.68-22.65,22.69-12.43.01-22.49-10.1-22.46-22.58.02-12.56,10.03-22.54,22.6-22.54Zm-14.69,22.54c-.01,8.08,6.51,14.65,14.56,14.67,8.06.02,14.72-6.48,14.74-14.39.02-8.33-6.42-14.9-14.61-14.91-8.14-.01-14.68,6.5-14.69,14.63Z"/>
  <path class="cls-1" d="m67.46,25.75c-3.03-.03-5.27-2.41-5.21-5.54.04-2.7,2.49-4.99,5.28-4.96,3.01.03,5.26,2.43,5.21,5.55-.04,2.69-2.48,4.98-5.28,4.95Z"/>
</svg>