<?xml version="1.0" encoding="UTF-8"?>
<svg id="Layer_1" data-name="Layer 1" xmlns="http://www.w3.org/2000/svg" viewBox="0 0 87.97 87.98">
  <defs>
    <style>
      .cls-1 {
        fill: #fafaf5;
        stroke-width: 0px;
      }
    </style>
  </defs>
  <path class="cls-1" d="m43.98,0c8.68,0,17.36,0,26.04,0,8.86,0,15.82,5.61,17.63,14.28.24,1.14.3,2.34.31,3.51.02,17.49.02,34.97.01,52.46,0,8.57-5.85,15.72-14.23,17.38-1.1.22-2.24.32-3.36.32-17.59.02-35.18.02-52.77.02-8.63,0-15.95-6.27-17.33-14.84-.17-1.03-.26-2.09-.26-3.14C0,52.64,0,35.28,0,17.93,0,9.13,5.78,2.04,14.42.3c1.12-.23,2.29-.27,3.44-.28,4.36-.03,8.73-.01,13.1-.01,4.34,0,8.68,0,13.02,0Zm1.15,68.25v-1.01c0-5.57,0-11.14,0-16.71,0-2.03.79-3.74,2.32-5.09,3.37-2.96,8.47-2.06,10.25,1.88.49,1.08.71,2.37.73,3.57.07,5.49.05,10.99.02,16.48,0,.75.22.95.96.94,2.41-.04,4.83,0,7.24-.02,1.95-.01,1.73.29,1.73-1.7,0-6.44,0-12.89,0-19.33,0-.84-.05-1.69-.12-2.53-.4-4.35-3.7-8.3-7.91-9.58-1.93-.59-3.91-.45-5.88-.47-2.38-.03-4.57.63-6.49,2.02-1.02.74-1.9,1.67-2.9,2.56v-4.21c-.32-.01-.54-.03-.77-.03-2.75,0-5.49.02-8.24-.02-.7,0-.86.23-.86.89.02,10.53.02,21.05,0,31.58,0,.7.23.87.88.86,2.72-.03,5.44-.01,8.16-.01.25,0,.5-.03.88-.05Zm-15.56-16.6c0-5.29,0-10.58.01-15.87,0-.6-.17-.8-.78-.79-2.8.03-5.6.03-8.39,0-.66,0-.89.18-.89.87.02,10.53.02,21.05,0,31.58,0,.68.22.88.89.87,2.77-.03,5.55-.03,8.32,0,.68,0,.86-.2.86-.87-.03-5.26-.01-10.53-.01-15.79Zm.95-27.35c-.02-3.36-2.74-6.07-6.06-6.04-3.25.03-5.91,2.77-5.89,6.06.02,3.32,2.7,6.06,5.9,6.06,3.32,0,6.06-2.75,6.05-6.08Z"/>
</svg>