<svg width="181" height="144" viewBox="0 0 181 144" fill="none" xmlns="http://www.w3.org/2000/svg">
<path d="M14.1954 144C10.5597 144 7.49256 142.636 4.76578 139.904C2.039 137.171 0.675781 134.097 0.675781 130.454V13.5457C0.675781 9.90297 2.039 6.82854 4.76578 4.0965C7.49256 1.36446 10.5597 0 14.1954 0H166.782C170.418 0 173.485 1.36446 176.212 4.0965C178.938 6.82854 180.302 9.90297 180.302 13.5457V130.454C180.302 134.097 178.938 137.171 176.212 139.904C173.485 142.636 170.418 144 166.782 144H14.1954ZM166.782 25.9575L94.0676 73.6536C93.4995 73.9951 92.9312 74.2208 92.3631 74.4484C91.795 74.6761 91.2264 74.7931 90.4311 74.7931C89.6358 74.7931 89.0686 74.79 88.5005 74.4484C87.9325 74.2208 87.3641 73.9951 86.796 73.6536L14.0817 25.9575V130.454H166.668V25.9575H166.782ZM90.5448 62.6092L165.986 13.5457H15.445L90.6586 62.6092H90.5448ZM14.3091 27.5471V18.6705V13.6624V18.7816V18.5537V27.5471Z" fill="#FAFAF5"/>
</svg>
