<svg width="168" height="160" viewBox="0 0 168 160" fill="none" xmlns="http://www.w3.org/2000/svg">
<path d="M87.8165 40V0H47.9781H38.0185H0.669922V160H167.966V40H87.8165ZM77.8569 10V40H47.9781V10H77.8569ZM38.0185 10V40H10.6295V10H38.0185ZM10.6295 77.5V50H38.0185V77.5H10.6295ZM38.0185 87.5V112.5H10.6295V87.5H38.0185ZM10.6295 122.5H38.0185V150H10.6295V122.5ZM77.8569 150H47.9781V122.5H77.8569V150ZM77.8569 112.5H47.9781V87.5H77.8569V112.5ZM47.9781 77.5V50H77.8569V77.5H47.9781ZM158.032 150H87.8414V122.5H102.781V112.5H87.8414V87.5H102.781V77.5H87.8414V50H158.032V150Z" fill="#FEFDF4"/>
<path d="M135.125 77.5H122.676V87.5H135.125V77.5Z" fill="#FEFDF4"/>
<path d="M135.125 112.5H122.676V122.5H135.125V112.5Z" fill="#FEFDF4"/>
</svg>
