<svg width="153" height="111" viewBox="0 0 153 111" fill="none" xmlns="http://www.w3.org/2000/svg">
<path d="M90.25 62.375C84.5208 62.375 79.651 60.3698 75.6406 56.3594C71.6302 52.349 69.625 47.4792 69.625 41.75C69.625 36.0208 71.6302 31.151 75.6406 27.1406C79.651 23.1302 84.5208 21.125 90.25 21.125C95.9792 21.125 100.849 23.1302 104.859 27.1406C108.87 31.151 110.875 36.0208 110.875 41.75C110.875 47.4792 108.87 52.349 104.859 56.3594C100.849 60.3698 95.9792 62.375 90.25 62.375ZM42.125 83C38.3438 83 35.1068 81.6536 32.4141 78.9609C29.7214 76.2682 28.375 73.0312 28.375 69.25V14.25C28.375 10.4688 29.7214 7.23177 32.4141 4.53906C35.1068 1.84635 38.3438 0.5 42.125 0.5H138.375C142.156 0.5 145.393 1.84635 148.086 4.53906C150.779 7.23177 152.125 10.4688 152.125 14.25V69.25C152.125 73.0312 150.779 76.2682 148.086 78.9609C145.393 81.6536 142.156 83 138.375 83H42.125ZM55.875 69.25H124.625C124.625 65.4688 125.971 62.2318 128.664 59.5391C131.357 56.8464 134.594 55.5 138.375 55.5V28C134.594 28 131.357 26.6536 128.664 23.9609C125.971 21.2682 124.625 18.0312 124.625 14.25H55.875C55.875 18.0312 54.5286 21.2682 51.8359 23.9609C49.1432 26.6536 45.9062 28 42.125 28V55.5C45.9062 55.5 49.1432 56.8464 51.8359 59.5391C54.5286 62.2318 55.875 65.4688 55.875 69.25ZM131.5 110.5H14.625C10.8438 110.5 7.60677 109.154 4.91406 106.461C2.22135 103.768 0.875 100.531 0.875 96.75V21.125H14.625V96.75H131.5V110.5Z" fill="#FAFAF5"/>
</svg>
