<svg width="181" height="153" viewBox="0 0 181 153" fill="none" xmlns="http://www.w3.org/2000/svg">
<path d="M178.59 116.616C177.67 119.596 176.483 121.479 175.497 122.735C175.11 123.229 174.523 124.058 173.617 124.766C172.044 125.995 169.924 126.623 165.831 127.598C165.831 130.777 165.885 134.01 165.818 137.257C165.778 139.274 165.818 141.345 165.365 143.295C164.152 148.572 159.432 152.406 154.033 152.767C153.393 152.807 152.766 152.834 152.126 152.834C127.81 152.834 103.493 152.834 79.1763 152.834C77.6565 152.834 76.8966 152.09 76.8966 150.603C76.8966 147.704 76.9766 144.805 76.87 141.906C76.8167 140.409 77.3499 140.062 78.7631 140.062C93.5877 140.102 108.412 140.089 123.224 140.089C132.489 140.089 141.755 140.049 151.02 140.129C152.633 140.129 153.22 139.781 153.206 138.045C153.153 117.284 153.313 96.5107 153.126 75.7503C152.966 59.1046 147.101 44.5697 135.582 32.5196C122.824 19.1737 107.079 12.6142 88.6551 12.7478C57.3393 12.9883 30.4096 37.2354 26.7167 68.4294C26.3835 71.3017 26.1968 74.214 26.1835 77.0996C26.1302 93.0506 26.1568 109.002 26.1568 124.953C26.1568 127.357 26.1568 127.397 23.6772 127.357C19.4644 127.291 15.1983 127.518 11.0389 126.997C5.42629 126.302 0.920228 121.132 0.813576 115.441C0.640266 106.397 0.640266 97.339 0.813576 88.2947C0.93356 82.3765 5.61293 77.5672 11.7321 76.5385C12.2387 76.4584 12.7453 76.3649 13.3452 76.258C14.0518 51.5165 23.7705 31.1837 43.2212 15.914C57.9925 4.34482 75.0302 -0.838588 93.7877 0.109922C133.516 2.12718 166.138 35.6991 165.925 76.2313C166.565 76.3515 167.231 76.4584 167.884 76.592C170.604 77.1664 172.817 78.2619 174.55 79.9051C175.83 81.1208 176.99 82.6972 178.176 86.2507C178.843 88.2279 180.136 92.5831 180.296 100.852C180.336 103.097 180.403 110.672 178.563 116.63L178.59 116.616Z" fill="#FEFDF4"/>
<path d="M82.2051 30.5824C76.3259 53.8143 61.9945 68.3893 39.2375 74.9353C38.9176 52.1711 53.5956 31.3974 82.8317 26.214C108.708 21.6317 132.852 40.2679 138.158 62.9921C122.066 65.4102 96.3098 58.3965 82.2184 30.5691L82.2051 30.5824Z" fill="#FEFDF4"/>
<path d="M111.892 85.9301C111.905 80.7199 116.251 76.3915 121.424 76.4316C126.61 76.4717 130.956 80.8669 130.916 86.0236C130.876 91.2471 126.543 95.5221 121.344 95.482C116.091 95.4419 111.878 91.1936 111.892 85.9301Z" fill="#FEFDF4"/>
<path d="M67.3757 85.9835C67.3757 91.2337 63.1229 95.4686 57.8703 95.482C52.6577 95.482 48.3383 91.1803 48.3516 85.9701C48.3516 80.7867 52.711 76.4449 57.897 76.4449C63.0963 76.4449 67.4024 80.7734 67.389 85.9969L67.3757 85.9835Z" fill="#FEFDF4"/>
</svg>
