<svg width="51" height="42" viewBox="0 0 51 42" fill="none" xmlns="http://www.w3.org/2000/svg">
<path d="M49.6176 31.8752C49.3657 32.6895 49.0407 33.2043 48.7705 33.5476C48.6646 33.6827 48.5039 33.9091 48.2556 34.1026C47.8247 34.4386 47.2441 34.6102 46.1231 34.8768C46.1231 35.7458 46.1377 36.6295 46.1195 37.5168C46.1085 38.0682 46.1195 38.6342 45.9953 39.1673C45.663 40.6097 44.3704 41.6577 42.8915 41.7563C42.7162 41.7672 42.5446 41.7745 42.3693 41.7745C35.7089 41.7745 29.0485 41.7745 22.3881 41.7745C21.9718 41.7745 21.7636 41.5713 21.7636 41.1647C21.7636 40.3723 21.7856 39.5799 21.7563 38.7876C21.7417 38.3786 21.8878 38.2836 22.2749 38.2836C26.3354 38.2946 30.3959 38.2909 34.4528 38.2909C36.9906 38.2909 39.5284 38.28 42.0662 38.3019C42.5081 38.3019 42.6687 38.207 42.6651 37.7323C42.6505 32.0578 42.6943 26.3796 42.6432 20.7051C42.5994 16.1553 40.9927 12.1824 37.8378 8.8887C34.3432 5.2408 30.0307 3.44789 24.9843 3.48441C16.4068 3.55014 9.03071 10.1777 8.01923 18.7041C7.92794 19.4891 7.87682 20.2852 7.87317 21.0739C7.85856 25.4339 7.86586 29.7938 7.86586 34.1537C7.86586 34.811 7.86586 34.822 7.18668 34.811C6.03279 34.7928 4.86429 34.8548 3.72501 34.7124C2.18771 34.5225 0.953487 33.1094 0.924274 31.5538C0.876804 29.0817 0.876804 26.606 0.924274 24.1339C0.957138 22.5163 2.23883 21.2017 3.91489 20.9205C4.05365 20.8986 4.19241 20.8731 4.35673 20.8439C4.55026 14.0812 7.21224 8.52354 12.5398 4.34982C16.5858 1.18759 21.2524 -0.229214 26.3902 0.0300455C37.2718 0.581429 46.2071 9.75776 46.1487 20.8366C46.3239 20.8694 46.5065 20.8986 46.6854 20.9351C47.4304 21.0922 48.0365 21.3916 48.5112 21.8407C48.8618 22.173 49.1795 22.6039 49.5044 23.5752C49.687 24.1156 50.0412 25.306 50.085 27.5664C50.096 28.1798 50.1142 30.2502 49.6103 31.8788L49.6176 31.8752Z" fill="white"/>
<path d="M23.2176 8.35923C21.6073 14.7093 17.6819 18.6931 11.4487 20.4824C11.361 14.2601 15.3814 8.58197 23.3892 7.16517C30.4769 5.91269 37.0898 11.0066 38.5431 17.2179C34.1357 17.8788 27.0809 15.9617 23.2213 8.35557L23.2176 8.35923Z" fill="white"/>
<path d="M31.3477 23.4876C31.3513 22.0635 32.5417 20.8804 33.9585 20.8913C35.379 20.9023 36.5694 22.1037 36.5584 23.5132C36.5475 24.9409 35.3607 26.1094 33.9366 26.0984C32.4979 26.0875 31.344 24.9263 31.3477 23.4876Z" fill="white"/>
<path d="M19.1561 23.5022C19.1561 24.9372 17.9912 26.0948 16.5525 26.0984C15.1248 26.0984 13.9417 24.9226 13.9453 23.4985C13.9453 22.0817 15.1394 20.895 16.5598 20.895C17.9839 20.895 19.1634 22.0781 19.1597 23.5058L19.1561 23.5022Z" fill="white"/>
</svg>
