<svg width="30" height="216" viewBox="0 0 30 216" fill="none" xmlns="http://www.w3.org/2000/svg">
<path d="M29.384 202.278C29.384 204.198 29.0384 205.977 28.3472 207.616C27.6304 209.254 26.6448 210.688 25.3904 211.916C24.136 213.12 22.6768 214.054 21.0128 214.72C19.3488 215.385 17.5696 215.718 15.6752 215.718C13.7552 215.718 11.9632 215.385 10.2992 214.72C8.6352 214.054 7.1888 213.12 5.96 211.916C4.7056 210.688 3.7328 209.267 3.0416 207.654C2.3248 206.016 1.9664 204.236 1.9664 202.316C1.9664 200.217 2.3248 198.374 3.0416 196.787C3.7584 195.2 4.7312 193.792 5.96 192.563L8.456 195.059C7.5088 195.904 6.7664 196.94 6.2288 198.169C5.6912 199.372 5.4224 200.755 5.4224 202.316C5.4224 203.724 5.6784 205.017 6.1904 206.195C6.6768 207.372 7.3808 208.396 8.3024 209.267C9.224 210.137 10.312 210.816 11.5664 211.302C12.8208 211.763 14.1904 211.993 15.6752 211.993C17.16 211.993 18.5296 211.763 19.784 211.302C21.0384 210.816 22.1264 210.137 23.048 209.267C23.9696 208.396 24.6864 207.372 25.1984 206.195C25.6848 205.017 25.928 203.724 25.928 202.316C25.928 200.652 25.6592 199.206 25.1216 197.977C24.5584 196.748 23.8032 195.712 22.856 194.867L25.3136 192.371C26.5936 193.6 27.592 195.046 28.3088 196.71C29.0256 198.348 29.384 200.204 29.384 202.278ZM29.384 180.856C29.384 182.648 28.9616 184.26 28.1168 185.694C27.272 187.128 26.1328 188.267 24.6992 189.112C23.24 189.956 21.6144 190.379 19.8224 190.379C18.056 190.379 16.4688 189.956 15.0608 189.112C13.6272 188.267 12.488 187.128 11.6432 185.694C10.7984 184.26 10.376 182.648 10.376 180.856C10.376 179.089 10.7984 177.489 11.6432 176.056C12.4624 174.596 13.5888 173.444 15.0224 172.6C16.456 171.755 18.056 171.332 19.8224 171.332C21.6144 171.332 23.24 171.755 24.6992 172.6C26.1328 173.444 27.272 174.596 28.1168 176.056C28.9616 177.489 29.384 179.089 29.384 180.856ZM26.0432 180.856C26.0432 179.704 25.7744 178.68 25.2368 177.784C24.6992 176.888 23.9696 176.184 23.048 175.672C22.1008 175.16 21.0256 174.904 19.8224 174.904C18.6448 174.904 17.5952 175.172 16.6736 175.71C15.752 176.222 15.0352 176.926 14.5232 177.822C13.9856 178.692 13.7168 179.704 13.7168 180.856C13.7168 182.008 13.9856 183.032 14.5232 183.928C15.0352 184.824 15.752 185.528 16.6736 186.04C17.5952 186.552 18.6448 186.808 19.8224 186.808C21.0256 186.808 22.1008 186.552 23.048 186.04C23.9696 185.528 24.6992 184.824 25.2368 183.928C25.7744 183.032 26.0432 182.008 26.0432 180.856ZM29 154.536L18.3632 154.536C16.9808 154.536 15.8416 154.971 14.9456 155.842C14.0496 156.712 13.6016 157.838 13.6016 159.221C13.6016 160.142 13.8064 160.962 14.216 161.678C14.6256 162.395 15.1888 162.958 15.9056 163.368C16.6224 163.778 17.4416 163.982 18.3632 163.982L17.5568 165.403C16.1744 165.403 14.9456 165.096 13.8704 164.482C12.7952 163.867 11.9504 163.01 11.336 161.909C10.696 160.808 10.376 159.566 10.376 158.184C10.376 156.802 10.7216 155.586 11.4128 154.536C12.104 153.461 13.0128 152.616 14.1392 152.002C15.24 151.387 16.4176 151.08 17.672 151.08L29 151.08L29 154.536ZM29 167.438L10.76 167.438L10.76 163.982L29 163.982L29 167.438ZM29 143.823L3.11839 143.823L3.11839 140.367L29 140.367L29 143.823ZM13.9088 148.316L10.76 148.316L10.76 135.874L13.9088 135.874L13.9088 148.316ZM29.384 125.294C29.384 126.958 28.9744 128.469 28.1552 129.825C27.3104 131.182 26.1712 132.257 24.7376 133.051C23.304 133.819 21.6912 134.203 19.8992 134.203C18.1072 134.203 16.4944 133.819 15.0608 133.051C13.6272 132.257 12.488 131.195 11.6432 129.864C10.7984 128.507 10.376 126.984 10.376 125.294C10.376 123.912 10.6704 122.683 11.2592 121.608C11.8224 120.507 12.616 119.624 13.64 118.958C14.6384 118.293 15.8032 117.921 17.1344 117.845L22.6256 117.845C23.9312 117.921 25.096 118.293 26.12 118.958C27.144 119.598 27.9504 120.469 28.5392 121.569C29.1024 122.645 29.384 123.886 29.384 125.294ZM26.12 124.718C26.12 123.003 25.544 121.621 24.392 120.571C23.2144 119.521 21.7168 118.997 19.8992 118.997C18.6448 118.997 17.5568 119.24 16.6352 119.726C15.688 120.187 14.9584 120.853 14.4464 121.723C13.9088 122.593 13.64 123.605 13.64 124.757C13.64 125.909 13.9088 126.933 14.4464 127.829C14.984 128.699 15.7264 129.39 16.6736 129.902C17.5952 130.389 18.6576 130.632 19.8608 130.632C21.0896 130.632 22.1776 130.389 23.1248 129.902C24.0464 129.39 24.776 128.686 25.3136 127.79C25.8512 126.894 26.12 125.87 26.12 124.718ZM29 119.227L24.0848 119.227L19.6304 118.574L15.2144 119.227L10.76 119.227L10.76 115.733L29 115.733L29 119.227ZM8.0336 127.099L6.45919 128.673L0.276794 123.681L3.00319 120.955L8.0336 127.099ZM29.384 102.368C29.384 104.16 28.9616 105.786 28.1168 107.245C27.272 108.679 26.1328 109.818 24.6992 110.663C23.24 111.482 21.6272 111.891 19.8608 111.891C18.0688 111.891 16.456 111.482 15.0224 110.663C13.5888 109.818 12.4624 108.679 11.6432 107.245C10.7984 105.786 10.376 104.16 10.376 102.368C10.376 100.96 10.6448 99.6546 11.1824 98.4514C11.6944 97.2482 12.4496 96.2114 13.448 95.341L15.752 97.645C15.0864 98.2082 14.5872 98.8994 14.2544 99.7186C13.896 100.512 13.7168 101.395 13.7168 102.368C13.7168 103.52 13.9856 104.544 14.5232 105.44C15.0352 106.336 15.752 107.04 16.6736 107.552C17.5952 108.064 18.6576 108.32 19.8608 108.32C21.064 108.32 22.1264 108.064 23.048 107.552C23.9696 107.04 24.6992 106.336 25.2368 105.44C25.7744 104.544 26.0432 103.52 26.0432 102.368C26.0432 101.395 25.8768 100.512 25.544 99.7186C25.1856 98.8994 24.6736 98.1954 24.008 97.6066L26.312 95.341C27.2848 96.1858 28.04 97.2226 28.5776 98.4514C29.1152 99.6546 29.384 100.96 29.384 102.368ZM29 89.3353L3.11839 89.3353L3.11839 85.8793L29 85.8793L29 89.3353ZM13.9088 93.8281L10.76 93.8281L10.76 81.3865L13.9088 81.3865L13.9088 93.8281ZM29.384 70.8067C29.384 72.4707 28.9744 73.9811 28.1552 75.3379C27.3104 76.6947 26.1712 77.7699 24.7376 78.5635C23.304 79.3315 21.6912 79.7155 19.8992 79.7155C18.1072 79.7155 16.4944 79.3315 15.0608 78.5635C13.6272 77.7699 12.488 76.7075 11.6432 75.3763C10.7984 74.0195 10.376 72.4963 10.376 70.8067C10.376 69.4243 10.6704 68.1955 11.2592 67.1203C11.8224 66.0195 12.616 65.1363 13.64 64.4707C14.6384 63.8051 15.8032 63.4339 17.1344 63.3571L22.6256 63.3571C23.9312 63.4339 25.096 63.8051 26.12 64.4707C27.144 65.1107 27.9504 65.9811 28.5392 67.0819C29.1024 68.1571 29.384 69.3987 29.384 70.8067ZM26.12 70.2307C26.12 68.5155 25.544 67.1331 24.392 66.0835C23.2144 65.0339 21.7168 64.5091 19.8992 64.5091C18.6448 64.5091 17.5568 64.7523 16.6352 65.2387C15.688 65.6995 14.9584 66.3651 14.4464 67.2355C13.9088 68.1059 13.64 69.1171 13.64 70.2691C13.64 71.4211 13.9088 72.4451 14.4464 73.3411C14.984 74.2115 15.7264 74.9027 16.6736 75.4147C17.5952 75.9011 18.6576 76.1443 19.8608 76.1443C21.0896 76.1443 22.1776 75.9011 23.1248 75.4147C24.0464 74.9027 24.776 74.1987 25.3136 73.3027C25.8512 72.4067 26.12 71.3827 26.12 70.2307ZM29 64.7395L24.0848 64.7395L19.6304 64.0867L15.2144 64.7395L10.76 64.7395L10.76 61.2451L29 61.2451L29 64.7395ZM29 43.3111L18.3632 43.3111C16.9808 43.3111 15.8416 43.7463 14.9456 44.6167C14.0496 45.4871 13.6016 46.6135 13.6016 47.9959C13.6016 48.9175 13.8064 49.7367 14.216 50.4535C14.6256 51.1703 15.1888 51.7335 15.9056 52.1431C16.6224 52.5527 17.4416 52.7575 18.3632 52.7575L17.5568 54.1783C16.1744 54.1783 14.9456 53.8711 13.8704 53.2567C12.7952 52.6423 11.9504 51.7847 11.336 50.6839C10.696 49.5831 10.376 48.3415 10.376 46.9591C10.376 45.5767 10.7216 44.3607 11.4128 43.3111C12.104 42.2359 13.0128 41.3911 14.1392 40.7767C15.24 40.1623 16.4176 39.8551 17.672 39.8551L29 39.8551L29 43.3111ZM29 56.2135L10.76 56.2135L10.76 52.7575L29 52.7575L29 56.2135ZM29.384 26.8432C29.384 28.6352 28.9616 30.248 28.1168 31.6816C27.272 33.1152 26.1328 34.2544 24.6992 35.0992C23.24 35.944 21.6144 36.3664 19.8224 36.3664C18.056 36.3664 16.4688 35.944 15.0608 35.0992C13.6272 34.2544 12.488 33.1152 11.6432 31.6816C10.7984 30.248 10.376 28.6352 10.376 26.8432C10.376 25.0768 10.7984 23.4768 11.6432 22.0432C12.4624 20.584 13.5888 19.432 15.0224 18.5872C16.456 17.7424 18.056 17.32 19.8224 17.32C21.6144 17.32 23.24 17.7424 24.6992 18.5872C26.1328 19.432 27.272 20.584 28.1168 22.0432C28.9616 23.4768 29.384 25.0768 29.384 26.8432ZM26.0432 26.8432C26.0432 25.6912 25.7744 24.6672 25.2368 23.7712C24.6992 22.8752 23.9696 22.1712 23.048 21.6592C22.1008 21.1472 21.0256 20.8912 19.8224 20.8912C18.6448 20.8912 17.5952 21.16 16.6736 21.6976C15.752 22.2096 15.0352 22.9136 14.5232 23.8096C13.9856 24.68 13.7168 25.6912 13.7168 26.8432C13.7168 27.9952 13.9856 29.0192 14.5232 29.9152C15.0352 30.8112 15.752 31.5152 16.6736 32.0272C17.5952 32.5392 18.6448 32.7952 19.8224 32.7952C21.0256 32.7952 22.1008 32.5392 23.048 32.0272C23.9696 31.5152 24.6992 30.8112 25.2368 29.9152C25.7744 29.0192 26.0432 27.9952 26.0432 26.8432ZM29.384 7.62759C29.384 8.65159 29.256 9.62439 29 10.546C28.7184 11.442 28.3344 12.274 27.848 13.042C27.336 13.81 26.7344 14.4756 26.0432 15.0388L23.816 12.8116C24.6352 12.146 25.2496 11.378 25.6592 10.5076C26.0432 9.63719 26.2352 8.66439 26.2352 7.58919C26.2352 6.51399 26.056 5.68199 25.6976 5.09319C25.3136 4.50439 24.7888 4.20999 24.1232 4.20999C23.4576 4.20999 22.9456 4.45319 22.5872 4.93959C22.2032 5.40039 21.896 6.00199 21.6656 6.74439C21.4096 7.48679 21.1664 8.28039 20.936 9.12519C20.68 9.94439 20.36 10.7252 19.976 11.4676C19.592 12.21 19.0672 12.8244 18.4016 13.3108C17.736 13.7716 16.8528 14.002 15.752 14.002C14.6512 14.002 13.704 13.7332 12.9104 13.1956C12.0912 12.658 11.464 11.9156 11.0288 10.9684C10.5936 9.99559 10.376 8.83079 10.376 7.47399C10.376 6.04039 10.632 4.77319 11.144 3.67239C11.6304 2.54599 12.3728 1.62439 13.3712 0.907586L15.5984 3.13479C14.9328 3.64679 14.4208 4.28679 14.0624 5.05479C13.704 5.79719 13.5248 6.64199 13.5248 7.58919C13.5248 8.58759 13.704 9.35559 14.0624 9.89319C14.3952 10.4052 14.8688 10.6612 15.4832 10.6612C16.0976 10.6612 16.5712 10.4308 16.904 9.96999C17.2368 9.50919 17.5184 8.90759 17.7488 8.16519C17.9792 7.39719 18.2224 6.60359 18.4784 5.78439C18.7088 4.96519 19.0288 4.18439 19.4384 3.44199C19.848 2.69959 20.3984 2.09799 21.0896 1.63719C21.7808 1.15079 22.6896 0.907585 23.816 0.907585C25.5312 0.907585 26.888 1.52199 27.8864 2.75079C28.8848 3.95399 29.384 5.57959 29.384 7.62759Z" fill="#FAFAF5"/>
</svg>
