<svg width="161" height="160" viewBox="0 0 161 160" fill="none" xmlns="http://www.w3.org/2000/svg">
<path d="M0.652344 159.998C2.49303 153.408 4.18129 147.354 5.87879 141.301C7.65943 134.952 9.52321 128.623 11.1653 122.239C11.4771 121.031 11.3062 119.396 10.7149 118.308C4.55312 106.947 1.03803 94.801 0.952581 81.9218C0.772439 55.0758 11.1122 33.0265 32.3551 16.4728C48.5587 3.84351 67.1989 -1.47616 87.5319 0.34951C110.5 2.41352 129.244 12.8492 143.572 31.0366C151.185 40.6995 156.245 51.6257 158.633 63.6581C162.584 83.5762 159.637 102.499 149.33 120.067C138.988 137.694 123.992 149.791 104.546 155.902C84.0145 162.353 63.917 160.696 44.6187 150.997C42.5655 149.965 40.7918 149.726 38.547 150.33C27.0455 153.424 15.4979 156.337 3.9642 159.304C3.05886 159.537 2.13275 159.692 0.656963 160L0.652344 159.998ZM20.7267 140.406C21.3988 140.304 21.7475 140.281 22.0801 140.195C28.5283 138.538 34.9857 136.921 41.4108 135.183C43.1129 134.723 44.4501 134.929 45.979 135.861C60.7969 144.89 76.8111 147.794 93.7745 144.37C108.315 141.436 120.613 134.262 130.26 122.915C144.268 106.44 149.136 87.3872 144.896 66.245C141.478 49.2008 132.293 35.6251 118.048 25.7377C102.396 14.8716 85.0307 11.5396 66.4506 15.5519C49.6396 19.1801 36.2559 28.327 26.5074 42.4696C16.7127 56.677 13.1468 72.4972 15.5788 89.6271C16.9576 99.3339 20.5512 108.185 25.7799 116.438C26.3573 117.35 26.5652 118.84 26.2926 119.893C24.7429 125.918 22.9923 131.893 21.3202 137.888C21.1101 138.64 20.96 139.409 20.7267 140.408V140.406Z" fill="#FEFDF4"/>
<path d="M101.138 117.735C94.6647 117.616 88.75 115.349 83.0462 112.672C65.2416 104.319 51.7334 91.446 42.8926 73.9582C40.0708 68.3758 39.0901 62.3265 40.3722 56.1026C41.4504 50.8673 44.5341 46.7793 48.7215 43.6753C51.8401 41.3623 55.5753 42.4131 59.0301 43.1856C59.7488 43.3466 60.4189 44.4824 60.7876 45.3101C63.0992 50.4994 65.288 55.7416 67.5811 60.9378C68.3972 62.7864 68.1491 64.3154 66.7812 65.796C65.0747 67.6446 63.5119 69.6242 61.7962 71.4659C60.5302 72.8224 60.5093 74.1031 61.4275 75.6574C67.8315 86.5188 77.0526 94.051 88.8172 98.615C90.2432 99.1691 91.3909 98.8978 92.3438 97.6401C94.2219 95.1662 96.1881 92.7566 98.0615 90.278C99.3947 88.5145 100.976 88.2064 102.949 89.1215C108.268 91.5886 113.598 94.028 118.936 96.4537C120.744 97.2745 121.389 98.523 121.085 100.528C119.434 111.422 112.071 117.811 101.141 117.735H101.138Z" fill="#FEFDF4"/>
</svg>
